<svg xmlns="http://www.w3.org/2000/svg">
  <symbol id="github" viewBox="0 0 29.901 29.216"><path clip-rule="evenodd" d="M15 0C6.7 0 0 6.7 0 15c0 6.6 4.3 12.2 10.3 14.2.8.1 1-.3 1-.7v-2.6c-4.2.9-5.1-2-5.1-2-.7-1.7-1.7-2.2-1.7-2.2-1.4-.9.1-.9.1-.9 1.5.1 2.3 1.5 2.3 1.5 1.3 2.3 3.5 1.6 4.4 1.2.1-1 .5-1.6 1-2-3.3-.4-6.8-1.7-6.8-7.4 0-1.6.6-3 1.5-4-.2-.4-.7-1.9.1-4 0 0 1.3-.4 4.1 1.5 1.2-.3 2.5-.5 3.8-.5 1.3 0 2.6.2 3.8.5 2.9-1.9 4.1-1.5 4.1-1.5.8 2.1.3 3.6.1 4 1 1 1.5 2.4 1.5 4 0 5.8-3.5 7-6.8 7.4.5.5 1 1.4 1 2.8v4.1c0 .4.3.9 1 .7 6-2 10.2-7.6 10.2-14.2C30 6.7 23.3 0 15 0z" fill-rule="evenodd"/></symbol>
  <symbol id="mail" viewBox="0 -256 1792 1408"><path d="M1792 198v794q0 66-47 113t-113 47H160q-66 0-113-47T0 992V198q44 49 101 87 362 246 497 345 57 42 92.5 65.5t94.5 48Q844 768 895 768h2q51 0 110-24.5t94.5-48Q1137 672 1194 630q170-123 498-345 57-39 100-87zm0-294q0 79-49 151t-122 123q-376 261-468 325-10 7-42.5 30.5t-54 38q-21.5 14.5-52 32.5T947 631q-27 9-50 9h-2q-23 0-50-9t-57.5-27q-30.5-18-52-32.5t-54-38Q649 510 639 503q-91-64-262-182.5T172 178Q110 136 55 62.5T0-74q0-78 41.5-130T160-256h1472q65 0 112.5 47T1792-96z"/></symbol>
  <symbol id="linkedin" viewBox="0 0 180 180"><path d="M153.383 153.384h-26.68V111.61c0-9.966-.183-22.779-13.873-22.779-13.894 0-16.021 10.853-16.021 22.058v42.495H70.13V67.483h25.611v11.736h.355c3.563-6.753 12.273-13.874 25.26-13.874 27.035 0 32.027 17.792 32.027 40.92v47.119zM40.04 55.74c-8.555 0-15.481-6.939-15.481-15.484 0-8.537 6.926-15.475 15.481-15.475 8.538 0 15.473 6.938 15.473 15.475 0 8.545-6.935 15.484-15.473 15.484zm13.344 97.644H26.688V67.483h26.697v85.9zM166.678 0H13.285C5.955 0 0 5.81 0 12.974V167.01C0 174.181 5.955 180 13.285 180h153.393c7.342 0 13.325-5.819 13.325-12.989V12.974C180.003 5.81 174.02 0 166.678 0"/></symbol>
  <symbol id="stack_overflow" viewBox="0 0 73.1 86.6"><path d="M69.5 86.6H0V55.7h7.7v23.2h54.1V55.7h7.7z"/><path d="M16.2 53.5L54 61.4l1.6-7.6-37.8-7.9-1.6 7.6zm5-18l35 16.3 3.2-7-35-16.4-3.2 7.1zm9.7-17.2L60.6 43l4.9-5.9-29.7-24.7-4.9 5.9zM50.1 0l-6.2 4.6 23 31 6.2-4.6-23-31zM15.4 71.1H54v-7.7H15.4v7.7z"/></symbol>
  <symbol id="scholar" viewBox="0 0 100 100"><path d="M43.844 99.711C23.954 97.474 6.499 82.1 1.587 62.727-3.48 43.853 3.59 22.386 19.196 10.514c15.684-12.6 39.161-14.09 56.33-3.629 16.043 9.357 25.999 28.152 24.397 46.707-1.116 21.077-17.22 40.097-37.706 44.974-5.98 1.574-12.247 1.712-18.373 1.145zm8.213-16.866c6.896-.62 15.44-4.258 16.159-12.11.993-5.493-2.025-10.879-6.815-13.519-4.757-2.179-6.302-8.735-.913-11.294 4.691-2.984 6.484-9.171 4.127-14.193-1.293-4.99 6.199-7.304 9.402-9.924.597 2.631-1.824 4.886-1.215 7.575.347 6.674-1.017 13.447.266 20.037 5.846 4.185 4.914-6.035 4.641-9.465-.445-4.384-.252-8.838-.312-13.202-1.83-3.519-1.712-7.493 1.853-9.785-12.153-.198-24.31-.084-36.465-.114-7.267 6.44-14.689 12.705-21.94 19.162l13.992.018c.341 5.506 3.354 11.277 9.038 12.769 2.363 1.7 8.833-.908 6.147 3.775-.556 2.727 4.474 6.922-.988 6.028-7.261.3-15.812 3.366-17.948 11.078-1.595 6.04 4.323 10.548 9.466 12.024 3.705 1.262 7.627 1.61 11.505 1.14zm-4.412-2.902c-5.188-.713-10.905-4.634-10.236-10.517.546-6.832 8.6-9.375 14.439-9.007 5.621.206 12.246 4.127 11.95 10.436.181 6.57-7.246 9.49-12.797 9.377a18.446 18.446 0 0 1-3.356-.289zm2.262-32.303c-7.269-3.148-11.675-13.915-6.228-20.445 3.75-3.824 9.793-1.593 12.473 2.322 4.114 4.96 5.01 13.87-.873 17.853-1.615.97-3.659 1.006-5.372.27z"/></symbol>
</svg>
